HIERARCHY
ROOT root
{
	OFFSET 0.000000 0.000000 0.000000
	CHANNELS 6 Xposition Yposition Zposition Zrotation Yrotation Xrotation
	JOINT lhip
	{
		OFFSET 0.058581 -0.082280 -0.017664
		CHANNELS 3 Zrotation Yrotation Xrotation
		JOINT lknee
		{
			OFFSET 0.043451 -0.386469 0.008037
			CHANNELS 3 Zrotation Yrotation Xrotation
			JOINT lankle
			{
				OFFSET -0.014790 -0.426874 -0.037428
				CHANNELS 3 Zrotation Yrotation Xrotation
				JOINT ltoe
				{
					OFFSET 0.041054 -0.060286 0.122042
					CHANNELS 3 Zrotation Yrotation Xrotation
					End Site
					{
						OFFSET 0.000000 0.000000 0.000000
					}
				}
			}
		}
	}
	JOINT rhip
	{
		OFFSET -0.060310 -0.090513 -0.013543
		CHANNELS 3 Zrotation Yrotation Xrotation
		JOINT rknee
		{
			OFFSET -0.043257 -0.383688 -0.004843
			CHANNELS 3 Zrotation Yrotation Xrotation
			JOINT rankle
			{
				OFFSET 0.019056 -0.420046 -0.034562
				CHANNELS 3 Zrotation Yrotation Xrotation
				JOINT rtoe
				{
					OFFSET -0.034840 -0.062106 0.130323
					CHANNELS 3 Zrotation Yrotation Xrotation
					End Site
					{
						OFFSET 0.000000 0.000000 0.000000
					}
				}
			}
		}
	}
	JOINT lowerback
	{
		OFFSET 0.004439 0.124404 -0.038385
		CHANNELS 3 Zrotation Yrotation Xrotation
		JOINT upperback
		{
			OFFSET 0.004488 0.137956 0.026820
			CHANNELS 3 Zrotation Yrotation Xrotation
			JOINT chest
			{
				OFFSET -0.002265 0.056032 0.002855
				CHANNELS 3 Zrotation Yrotation Xrotation
				JOINT lowerneck
				{
					OFFSET -0.013390 0.211636 -0.033468
					CHANNELS 3 Zrotation Yrotation Xrotation
					JOINT upperneck
					{
						OFFSET 0.010113 0.088937 0.050410
						CHANNELS 3 Zrotation Yrotation Xrotation
						End Site
						{
							OFFSET 0.000000 0.000000 0.000000
						}
					}
				}
				JOINT lclavicle
				{
					OFFSET 0.071702 0.114000 -0.018898
					CHANNELS 3 Zrotation Yrotation Xrotation
					JOINT lshoulder
					{
						OFFSET 0.122921 0.045205 -0.019046
						CHANNELS 3 Zrotation Yrotation Xrotation
						JOINT lelbow
						{
							OFFSET 0.255332 -0.015649 -0.022946
							CHANNELS 3 Zrotation Yrotation Xrotation
							JOINT lwrist
							{
								OFFSET 0.265709 0.012698 -0.007375
								CHANNELS 3 Zrotation Yrotation Xrotation
								End Site
								{
									OFFSET 0.000000 0.000000 0.000000
								}
							}
						}
					}
				}
				JOINT rclavicle
				{
					OFFSET -0.082954 0.112472 -0.023707
					CHANNELS 3 Zrotation Yrotation Xrotation
					JOINT rshoulder
					{
						OFFSET -0.113228 0.046853 -0.008472
						CHANNELS 3 Zrotation Yrotation Xrotation
						JOINT relbow
						{
							OFFSET -0.260127 -0.014369 -0.031269
							CHANNELS 3 Zrotation Yrotation Xrotation
							JOINT rwrist
							{
								OFFSET -0.269108 0.006794 -0.006027
								CHANNELS 3 Zrotation Yrotation Xrotation
								End Site
								{
									OFFSET 0.000000 0.000000 0.000000
								}
							}
						}
					}
				}
			}
		}
	}
}
MOTION
Frames: 5
Frame Time: 0.033333
-0.760974 0.876550 0.981997 89.257119 -1.284071 86.142924 -1.923753 2.810557 11.828916 -4.127185 -10.967592 4.676581 2.957664 7.588076 -13.215101 0.000000 -0.000000 0.000000 1.388313 -2.229088 -14.835285 -0.753758 -2.375672 1.857299 3.259928 -7.800774 -2.508972 0.000000 -0.000000 0.000000 -3.783447 -1.426177 6.746827 2.046907 -4.090089 9.457235 -0.598989 -2.805931 -4.131872 -1.956555 5.664766 -1.880993 0.070376 5.074143 16.454996 -29.236302 -4.277915 -0.500886 -50.146993 -14.137451 13.659227 13.085340 -28.968871 -3.268412 -0.118082 -8.577301 10.804968 32.577961 3.074787 1.604439 49.250263 2.335926 14.718840 -10.715928 29.605420 0.570247 5.769461 8.347583 13.883317 
-0.737636 0.870858 0.979644 89.908604 -1.534696 85.932917 -1.602945 1.949134 12.562189 -4.845105 -11.581704 6.536715 2.464589 7.991730 -13.816464 0.000000 -0.000000 0.000000 1.316001 -1.517499 -14.749679 -0.796997 -2.605167 4.564014 -0.468735 -7.484435 -0.366482 0.000000 -0.000000 0.000000 -3.588249 -1.878291 6.832275 2.023893 -3.833249 8.834773 -0.623667 -2.868241 -3.646283 -1.644668 5.534841 -2.159861 -0.023896 5.349106 16.870856 -29.650514 -3.348403 0.003185 -50.439694 -13.649317 13.396595 13.024890 -27.447385 -2.672023 -1.008004 -8.666828 10.318386 32.811351 2.691085 1.513104 49.131007 2.322307 14.950856 -10.819947 28.680868 1.210497 6.106822 8.401858 13.291889 
-0.713377 0.865640 0.980518 90.647959 -1.641574 85.715902 -1.508175 1.513894 12.596530 -5.026986 -12.575123 9.868741 1.446280 8.374356 -14.154312 0.000000 -0.000000 0.000000 1.397810 -1.268647 -14.184884 -0.836430 -2.095186 5.992924 -2.226286 -7.958042 0.873061 0.000000 -0.000000 0.000000 -2.971544 -2.190217 6.446799 2.097483 -3.952072 9.182166 -0.974380 -2.877797 -3.668552 -1.493588 4.898117 -2.342269 -0.009195 5.542846 17.646536 -30.947131 -2.588979 -0.003982 -49.456312 -12.750982 13.761059 11.852334 -24.850494 -2.622357 -0.937776 -8.213172 10.097688 33.649129 2.431122 0.863322 48.133016 2.114636 15.243341 -10.112683 26.899285 0.677954 5.762420 8.253824 12.901684 
-0.683601 0.859035 0.985843 91.062953 -1.192940 85.651616 -0.904217 0.874280 11.435792 -5.744316 -12.167534 15.656450 -0.101911 8.406134 -13.183678 0.000000 -0.000000 0.000000 1.620086 -0.924530 -13.094896 0.018110 -2.548780 8.317307 -3.295250 -7.728836 -1.476737 0.000000 -0.000000 0.000000 -1.553370 -2.498469 5.556288 2.172931 -4.058282 9.541567 -1.266138 -2.696401 -3.509736 -0.969394 5.268668 -2.216800 -0.432597 5.535234 17.968220 -31.958007 -1.715827 0.428920 -50.007386 -11.358586 13.121138 12.194360 -21.563468 -1.868760 -1.094408 -8.011832 10.764441 33.780936 2.404176 0.841458 47.647679 2.227378 14.669372 -9.967142 24.128161 0.958943 6.268002 7.990011 13.628921 
-0.668628 0.853147 0.989164 91.363412 -1.127011 85.669292 -0.514639 -0.135844 9.725049 -6.893224 -11.231114 20.317725 -1.223229 7.670994 -12.050690 0.000000 -0.000000 0.000000 1.903985 -0.570870 -12.122805 0.238144 -2.397516 8.504254 -4.033396 -8.056835 -1.853489 0.000000 -0.000000 0.000000 -1.620087 -2.217969 5.785945 2.383933 -4.146224 9.035833 -0.948220 -2.734622 -3.239421 -0.606976 5.505738 -2.388672 -0.639548 5.162315 18.050666 -31.638523 -1.239426 0.836815 -50.945101 -10.823501 12.768946 12.051969 -19.217372 -1.826218 -2.247407 -7.489270 10.266997 33.644902 2.468817 0.903376 47.943326 2.343608 14.376146 -10.477257 22.414387 0.456382 6.661971 7.423958 13.389629 
